{"title":"Iggy Azalea ft. T.I. - Change Your Life (Explicit) 720p x264 AAC","uid":9088802,"size":53471362,"categoryP":"video","categoryS":"music_videos","magnet":"?xt=urn:btih:20f8be0e4a83ca20b1589fdb0c6903e6ed5e6161&amp;dn=Iggy+Azalea+ft.+T.I.+-+Change+Your+Life+%28Explicit%29+720p+x264+AAC&amp;tr=udp%3A%2F%2Ftracker.openbittorrent.com%3A80&amp;tr=udp%3A%2F%2Fopen.demonii.com%3A1337&amp;tr=udp%3A%2F%2Ftracker.coppersurfer.tk%3A6969&amp;tr=udp%3A%2F%2Fexodus.desync.com%3A6969","seeders":4,"leechers":0,"uploader":"canc232","files":1,"time":1382551263,"description":"Iggy Azalea ft. T.I. - Change Your Life (Explicit) 720p x264 AAC [GWC]\n\nCOVER : &lt;a href=&quot;\nhttp://s20.postimg.org/4g7xiu1h9/igggg.jpg&quot; rel=&quot;nofollow&quot; target=&quot;_NEW&quot;&gt;\nhttp://s20.postimg.org/4g7xiu1h9/igggg.jpg&lt;/a&gt;\n\n\nIggy Azalea has given the likes of Miley Cyrus and Rihanna a run for their money after baring all and \n\ngoing topless!!\nHer mentor T.I., who also features looks rather dashing all suited and booted.\n\nIn this cinematic video, Azalea plays a Vegas dancer, while T.I. acts as the club owner.\nAfter some passionate love making on the hood of his car, she ends up taking his money and torching \n\nthe vehicle before being dragged off in handcuffs\n\n\nTHUMBNAIL IMAGE : &lt;a href=&quot;\nhttp://img42.imageshack.us/img42/1154/ivaz.jpg&quot; rel=&quot;nofollow&quot; target=&quot;_NEW&quot;&gt;\nhttp://img42.imageshack.us/img42/1154/ivaz.jpg&lt;/a&gt;\n\n\nMEDIA INFO:\n\nGeneral \nFormat : MPEG-4 \nFormat profile : Base Media \nFile size : 51.0 MiB \nDuration : 3mn 39s \nOverall bit rate mode : Variable \nOverall bit rate : 1 946 Kbps \n\nVideo \nFormat : AVC \nFormat profile : &lt;a class=&quot;__cf_email__&quot; href=&quot;/cdn-cgi/l/email-protection&quot; data-cfemail=&quot;a3ebcac4cbe3ef908d92&quot;&gt;[email&amp;#160;protected]&lt;/a&gt;&lt;script cf-hash='f9e31' type=&quot;text/javascript&quot;&gt;\n/* &lt;![CDATA[ */!function(){try{var t=&quot;currentScript&quot;in document?document.currentScript:function(){for(var t=document.getElementsByTagName(&quot;script&quot;),e=t.length;e--;)if(t[e].getAttribute(&quot;cf-hash&quot;))return t[e]}();if(t&amp;&amp;t.previousSibling){var e,r,n,i,c=t.previousSibling,a=c.getAttribute(&quot;data-cfemail&quot;);if(a){for(e=&quot;&quot;,r=parseInt(a.substr(0,2),16),n=2;a.length-n;n+=2)i=parseInt(a.substr(n,2),16)^r,e+=String.fromCharCode(i);e=document.createTextNode(e),c.parentNode.replaceChild(e,c)}}}catch(u){}}();/* ]]&gt; */&lt;/script&gt; \nDuration : 3mn 39s \nSource duration : 3mn 39s \nBit rate : 1 858 Kbps \nWidth : 1 280 pixels \nHeight : 720 pixels \nDisplay aspect ratio : 16:9 \nFrame rate : 23.976 fps \nStream size : 48.7 MiB (95%) \nTitle : Iggy Azalea ft. T.I. - Change Your Life (Explicit) 720p x264 AAC [GWC] \n\nAudio\nFormat : AAC \nFormat profile : LC \nDuration : 3mn 39s \nBit rate mode : Variable \nChannel(s) : 2 channels \nSampling rate : 48.0 KHz \nStream size : 2.25 MiB (4%) \nLanguage : English ","torrent":{"xt":"urn:btih:20f8be0e4a83ca20b1589fdb0c6903e6ed5e6161","amp;dn":"Iggy+Azalea+ft.+T.I.+-+Change+Your+Life+%28Explicit%29+720p+x264+AAC","amp;tr":["udp%3A%2F%2Ftracker.openbittorrent.com%3A80","udp%3A%2F%2Fopen.demonii.com%3A1337","udp%3A%2F%2Ftracker.coppersurfer.tk%3A6969","udp%3A%2F%2Fexodus.desync.com%3A6969"],"infoHash":"20f8be0e4a83ca20b1589fdb0c6903e6ed5e6161","infoHashBuffer":{"type":"Buffer","data":[32,248,190,14,74,131,202,32,177,88,159,219,12,105,3,230,237,94,97,97]},"announce":[],"urlList":[]}}